<?xml version="1.0" standalone="no"?>
<!DOCTYPE svg PUBLIC "-//W3C//DTD SVG 20010904//EN"
 "http://www.w3.org/TR/2001/REC-SVG-20010904/DTD/svg10.dtd">
<svg version="1.0" xmlns="http://www.w3.org/2000/svg"
 width="3375.000000pt" height="2436.000000pt" viewBox="0 0 3375.000000 2436.000000"
 preserveAspectRatio="xMidYMid meet">

<g transform="translate(0.000000,2436.000000) scale(0.100000,-0.100000)"
fill="#000000" stroke="none">
<path d="M0 12180 l0 -12180 16875 0 16875 0 0 12180 0 12180 -16875 0 -16875
0 0 -12180z m17450 6085 c10 -24 24 -64 30 -87 11 -43 100 -297 192 -548 27
-74 56 -157 65 -185 22 -70 142 -412 204 -580 28 -77 62 -176 75 -221 13 -44
37 -116 53 -160 65 -173 166 -457 211 -594 26 -80 76 -221 110 -315 34 -93
100 -280 145 -414 46 -134 88 -248 94 -254 17 -17 27 0 59 113 83 292 112 395
141 500 17 63 49 174 70 245 110 369 161 545 161 557 0 27 77 269 86 271 5 1
10 -375 12 -934 l2 -936 -45 -148 c-25 -82 -45 -154 -45 -161 0 -6 -52 -180
-115 -385 -64 -206 -129 -423 -145 -484 -16 -60 -40 -146 -54 -190 -27 -87
-73 -239 -160 -523 -31 -101 -56 -189 -56 -195 0 -6 -56 -193 -125 -416 -68
-223 -129 -428 -135 -456 -6 -27 -36 -131 -67 -230 -30 -99 -73 -236 -94 -305
-35 -113 -78 -261 -129 -440 -10 -36 -44 -148 -75 -250 -31 -102 -81 -264
-110 -360 l-52 -175 -145 -3 c-108 -2 -148 1 -155 10 -12 14 -209 587 -450
1308 -30 91 -112 334 -182 540 -195 575 -298 881 -353 1045 -27 83 -107 321
-178 530 -70 209 -157 468 -193 575 -36 107 -97 287 -135 400 -38 113 -103
306 -145 430 -42 124 -98 290 -125 370 -27 80 -77 229 -111 332 -33 103 -94
283 -135 400 -40 117 -99 292 -131 388 -31 96 -92 276 -134 400 -43 124 -91
266 -107 315 -36 114 -128 302 -187 381 -46 63 -108 113 -173 140 -19 8 -93
30 -164 49 -212 57 -308 118 -362 230 -22 48 -28 74 -28 131 0 92 22 153 76
213 60 67 133 101 232 111 42 4 726 8 1520 9 l1443 1 19 -45z m5221 36 c219
-20 336 -131 331 -315 -2 -81 -26 -146 -73 -200 -47 -53 -109 -85 -284 -145
-65 -23 -126 -47 -134 -54 -35 -30 -93 -121 -109 -174 -16 -55 -17 -243 -20
-3213 -2 -2129 1 -3177 8 -3222 15 -98 45 -171 93 -223 36 -39 56 -51 142 -80
55 -19 108 -35 119 -35 35 0 137 -64 181 -112 52 -58 76 -125 77 -210 1 -127
-47 -206 -155 -257 -125 -59 -38 -56 -1842 -56 -1565 0 -1665 1 -1745 18 -159
34 -243 85 -287 174 -23 48 -28 70 -27 133 0 93 26 155 90 221 56 57 102 77
274 119 193 47 233 64 275 114 47 58 85 144 96 219 5 36 9 1581 9 3678 0 1989
3 3619 7 3622 10 10 2862 8 2974 -2z m6897 -6 c175 -15 288 -119 300 -275 9
-129 -44 -235 -148 -298 -30 -18 -104 -48 -165 -68 -60 -19 -126 -41 -146 -50
-44 -19 -108 -98 -134 -167 -20 -51 -20 -82 -26 -2807 -6 -2929 -4 -2802 -55
-3060 -58 -291 -149 -516 -302 -750 -109 -167 -320 -377 -492 -490 -294 -194
-683 -343 -1115 -429 -258 -52 -394 -63 -767 -63 -185 0 -341 3 -347 6 -8 5
-11 112 -11 350 l0 342 91 69 c50 38 111 89 134 113 94 95 147 266 165 535 13
193 13 5880 0 6005 -16 147 -57 239 -132 295 -15 11 -107 42 -205 69 -200 55
-263 81 -318 135 -60 58 -80 112 -80 218 0 80 3 95 27 136 58 98 140 145 304
174 73 13 312 15 1656 15 864 0 1574 2 1577 5 3 3 30 3 60 1 31 -3 89 -8 129
-11z m-19573 -1144 c124 -23 251 -68 319 -114 28 -19 71 -46 96 -60 74 -42
200 -198 200 -248 0 -10 10 -25 23 -34 107 -75 159 -109 202 -131 94 -50 175
-121 276 -241 99 -117 149 -230 183 -413 3 -14 12 -54 20 -90 26 -119 35 -242
42 -565 3 -176 5 -327 5 -335 -1 -8 -3 -274 -5 -590 -2 -506 -20 -1152 -32
-1171 -2 -4 -6 -69 -9 -145 -3 -77 -8 -161 -11 -189 -3 -27 -8 -70 -10 -95
-15 -152 -27 -234 -45 -300 -12 -41 -25 -93 -29 -115 -5 -22 -14 -53 -20 -70
-6 -16 -11 -31 -11 -32 1 -5 -11 -38 -22 -63 -6 -14 -11 -27 -11 -30 -2 -12
-65 -89 -115 -142 -32 -34 -69 -62 -90 -69 -20 -6 -40 -14 -46 -18 -5 -3 -15
-6 -20 -7 -6 -1 -32 -11 -58 -23 -25 -12 -85 -30 -133 -42 -47 -11 -96 -24
-107 -28 -60 -23 -446 -39 -587 -25 -125 12 -189 24 -220 39 -14 7 -45 15 -68
19 -24 4 -62 16 -84 27 -21 11 -62 23 -90 26 -48 6 -51 5 -43 -13 4 -10 12
-102 16 -204 11 -250 15 -267 76 -337 27 -32 66 -86 87 -120 l38 -61 66 -12
c37 -6 97 -21 135 -32 74 -23 153 -20 173 7 6 8 14 47 18 87 9 105 48 239 85
294 68 99 124 154 191 185 119 56 198 27 234 -86 16 -53 16 -56 -4 -99 -23
-51 -37 -58 -126 -57 -51 0 -69 -4 -84 -19 -36 -36 -66 -189 -40 -205 19 -12
50 -94 56 -147 4 -39 0 -69 -14 -113 -20 -57 -40 -171 -40 -225 -1 -154 -26
-374 -43 -394 -5 -6 -30 -11 -56 -13 -27 -2 -70 -10 -98 -17 -27 -8 -62 -17
-78 -20 -15 -4 -41 -19 -58 -34 -31 -28 -31 -30 -30 -115 1 -63 -4 -101 -18
-141 -21 -59 -109 -192 -160 -240 -37 -35 -38 -41 -10 -64 59 -50 81 -221 38
-308 -50 -104 -146 -149 -319 -149 -98 0 -108 2 -148 28 -41 27 -82 79 -82
105 0 14 36 52 50 52 5 0 16 -13 25 -30 8 -16 25 -35 37 -41 18 -10 24 -8 38
10 35 47 50 161 22 161 -5 0 -27 -16 -50 -36 -36 -30 -44 -33 -63 -24 -18 10
-20 17 -14 48 4 21 8 74 9 119 1 69 4 85 23 105 28 30 141 249 159 308 20 66
19 273 -3 336 -29 87 -83 180 -141 248 -179 206 -221 252 -303 337 -132 136
-251 261 -274 289 -57 69 -55 57 -55 315 0 230 1 242 24 290 24 53 38 68 89
95 l32 18 0 108 c0 60 -6 255 -13 434 -11 314 -27 951 -38 1560 -3 162 -9 446
-12 631 -4 186 -4 550 0 810 10 681 20 882 50 974 10 33 28 89 39 125 39 125
78 190 163 274 44 43 105 97 136 120 105 77 292 157 408 175 75 11 248 3 357
-18z m3155 -165 c236 -69 311 -135 296 -261 -8 -67 -31 -134 -57 -161 -26 -28
-95 -45 -150 -38 -88 12 -202 83 -251 156 -23 34 -81 42 -215 29 -104 -10
-137 -21 -246 -83 -90 -52 -154 -113 -218 -210 -60 -91 -68 -111 -47 -124 18
-11 512 -6 543 6 59 22 115 -3 115 -52 0 -45 -66 -78 -97 -47 -23 23 -381 19
-488 -5 -11 -2 -23 -5 -26 -5 -3 -1 -22 -31 -41 -69 -20 -37 -62 -108 -95
-157 -33 -50 -99 -160 -147 -245 -49 -85 -105 -184 -126 -220 -21 -36 -44 -77
-51 -92 -34 -65 -108 -191 -169 -288 -59 -92 -123 -206 -169 -298 -7 -15 -24
-44 -38 -66 -21 -33 -27 -36 -39 -25 -11 12 -11 20 -1 49 7 19 15 40 18 45 4
6 16 26 26 45 44 78 156 267 173 291 11 15 39 62 63 105 24 44 70 124 102 179
32 55 69 119 81 143 13 23 46 79 72 125 27 45 97 163 156 261 58 99 103 183
99 187 -9 9 -29 12 -61 10 -23 -1 -75 -73 -154 -216 -22 -38 -60 -104 -85
-145 -25 -41 -67 -115 -93 -165 -74 -142 -171 -325 -202 -380 -15 -27 -37 -68
-47 -90 -11 -22 -40 -71 -66 -109 -25 -38 -45 -72 -45 -76 0 -14 -28 -31 -34
-22 -6 11 -16 254 -16 427 l-1 110 57 110 c31 61 69 130 84 155 15 25 54 92
86 150 32 58 72 128 89 155 76 123 73 138 -31 171 -63 19 -70 24 -90 65 -17
33 -22 56 -18 97 6 86 12 91 100 88 69 -2 77 -5 97 -30 23 -28 73 -45 115 -38
24 4 43 29 112 154 22 40 73 101 138 166 96 96 113 108 210 153 58 27 113 51
121 53 9 2 23 5 31 8 27 10 94 26 150 37 30 6 64 13 75 15 11 3 85 4 165 2
124 -2 159 -7 240 -30z m1996 -1719 c18 -50 58 -162 89 -247 31 -85 92 -258
135 -385 43 -126 113 -324 155 -440 42 -115 100 -277 128 -360 l51 -150 6
-1100 c6 -1003 8 -1107 24 -1175 24 -101 58 -184 129 -315 50 -90 77 -126 151
-200 86 -86 114 -107 397 -289 140 -90 229 -207 229 -301 0 -56 -23 -129 -53
-169 -34 -44 -147 -102 -232 -118 -55 -10 -261 -13 -940 -13 -800 0 -876 1
-946 18 -144 34 -228 107 -250 219 -25 123 15 206 134 284 42 27 115 74 163
104 107 67 251 206 321 310 145 216 220 446 243 743 6 82 10 810 10 1903 0
974 3 1774 7 1777 10 11 15 2 49 -96z m-7442 -1290 c61 -30 116 -60 123 -69
13 -15 1 -83 -18 -102 -15 -16 -10 -42 10 -60 14 -13 18 -26 14 -55 -5 -33 -1
-44 30 -77 19 -22 41 -57 48 -79 30 -85 16 -80 222 -81 208 -1 213 -2 293 -86
37 -38 124 -173 124 -191 0 -4 14 -35 30 -69 72 -149 104 -356 98 -639 l-3
-176 -50 -98 c-80 -160 -239 -308 -343 -322 -33 -4 -43 0 -85 37 -26 23 -64
67 -85 98 -94 142 -269 285 -472 386 -84 41 -107 48 -190 56 -294 29 -419 1
-645 -142 -22 -14 -58 -31 -79 -38 -38 -12 -41 -12 -55 11 -27 41 -72 79 -95
79 -36 0 -46 20 -46 87 0 59 2 64 25 73 27 10 65 64 65 92 0 9 12 23 28 30 26
13 27 16 22 73 -16 186 3 483 36 565 45 114 243 367 328 419 23 15 50 21 88
21 51 0 59 3 97 40 25 24 51 40 65 40 42 0 73 17 96 54 17 28 28 36 50 36 35
0 49 14 90 85 22 38 38 55 52 55 11 0 70 -24 132 -53z m17290 -828 c149 -20
347 -96 476 -183 159 -108 321 -288 414 -459 45 -84 97 -248 116 -367 15 -97
12 -277 -6 -371 -32 -173 -78 -287 -166 -421 -47 -71 -114 -155 -158 -198 -89
-89 -289 -226 -377 -258 -196 -71 -212 -157 -46 -245 63 -33 214 -84 308 -104
l40 -9 3 -319 c1 -175 -1 -322 -6 -327 -9 -9 -240 37 -405 81 -63 17 -200 60
-303 96 -469 162 -856 459 -1087 833 -197 318 -270 571 -269 927 1 245 37 417
127 595 63 126 174 279 260 361 173 164 215 195 340 254 253 118 461 150 739
114z m-19372 -406 c15 -18 29 -131 32 -263 4 -152 3 -149 40 -171 21 -12 45
-40 62 -72 15 -29 43 -83 64 -122 41 -78 63 -135 78 -210 6 -27 19 -83 28
-123 11 -47 14 -79 8 -91 -13 -25 -135 -134 -214 -189 -36 -25 -112 -83 -170
-127 -106 -82 -195 -147 -299 -220 -31 -22 -78 -57 -103 -77 -25 -21 -49 -38
-55 -38 -5 0 -27 -15 -49 -33 -21 -18 -64 -50 -94 -70 -73 -47 -289 -268 -325
-332 -16 -27 -34 -57 -41 -65 -7 -8 -28 -54 -48 -102 -34 -83 -36 -92 -36
-205 0 -132 10 -184 67 -338 53 -143 102 -228 185 -324 132 -153 142 -161 182
-161 20 0 58 -11 85 -25 64 -32 254 -75 363 -82 101 -7 228 11 273 39 17 10
42 18 57 18 34 0 144 37 178 59 20 13 37 15 85 9 33 -4 157 -12 275 -17 118
-6 216 -10 218 -11 1 0 2 -9 2 -20 0 -19 -6 -19 -132 -15 -237 9 -262 8 -313
-9 -75 -24 -97 -24 -110 1 -8 16 -15 19 -28 11 -10 -5 -48 -20 -85 -32 -37
-13 -85 -33 -107 -45 -24 -13 -58 -21 -85 -21 -25 0 -51 -5 -56 -10 -7 -7 -55
-7 -145 -1 -140 10 -316 47 -393 82 -50 23 -94 24 -123 4 -15 -10 -47 -16 -95
-16 -65 -1 -209 -22 -229 -34 -11 -8 -25 16 -54 97 -32 91 -52 113 -92 104
-153 -36 -275 -47 -288 -26 -11 17 -7 128 6 186 l12 55 -32 33 -33 34 7 94 c8
108 22 138 65 138 22 0 33 6 39 23 21 54 31 96 31 124 0 16 4 43 9 59 5 16 21
81 36 144 26 117 62 237 75 255 4 6 20 48 35 95 16 47 45 121 65 165 20 44 47
107 60 140 26 69 108 247 146 320 84 162 343 686 424 860 50 106 90 144 160
152 82 10 86 17 94 179 8 164 9 172 24 201 15 26 31 30 153 32 80 1 98 -2 111
-16z m733 -328 c0 -21 -7 -33 -24 -41 -13 -7 -28 -19 -32 -26 -10 -18 -12
-168 -5 -293 l6 -101 -30 -29 c-19 -18 -34 -25 -39 -19 -12 12 -20 101 -26
284 l-4 145 -31 26 c-22 19 -31 34 -28 50 3 21 10 25 53 29 28 3 75 5 105 5
54 0 55 0 55 -30z m1130 -64 c292 -79 536 -293 632 -556 24 -66 23 -251 -2
-345 -64 -244 -108 -313 -313 -485 -46 -38 -103 -86 -125 -106 -23 -20 -69
-55 -102 -77 -67 -47 -143 -106 -255 -200 -19 -16 -62 -49 -96 -73 -33 -24
-106 -80 -160 -124 -55 -44 -117 -91 -139 -105 -22 -13 -80 -56 -130 -95 -49
-39 -115 -87 -145 -105 -54 -34 -170 -118 -180 -131 -18 -23 -219 -177 -335
-257 -33 -22 -82 -59 -110 -81 -27 -23 -70 -51 -95 -64 -44 -22 -53 -22 -469
-25 l-424 -3 -66 26 c-88 36 -173 88 -210 130 -47 53 -119 209 -152 330 -25
88 -31 129 -31 203 1 52 3 106 7 120 3 15 7 36 9 47 4 22 44 108 79 170 27 49
251 276 331 336 32 24 100 73 150 108 50 35 111 80 136 100 25 21 65 51 90 67
25 16 89 62 144 104 54 41 130 99 170 127 39 29 92 70 118 90 105 86 207 163
213 163 4 0 20 10 35 23 16 12 45 33 65 47 21 14 54 39 74 56 20 17 46 36 58
43 12 6 57 40 100 76 145 121 158 131 238 192 80 60 177 122 290 182 33 18 67
39 75 47 78 68 349 92 525 45z m2138 -575 c12 -8 42 -17 67 -21 80 -13 85 -28
37 -121 -44 -84 -85 -144 -103 -151 -35 -13 -44 18 -46 153 -1 117 3 154 18
154 3 0 15 -6 27 -14z m-1302 -108 c40 -46 117 -130 169 -188 53 -58 113 -127
135 -155 22 -27 65 -73 95 -101 30 -29 84 -86 120 -129 36 -42 110 -122 165
-178 56 -56 134 -142 175 -190 41 -49 99 -116 128 -150 111 -129 155 -246 151
-405 -2 -107 -8 -129 -73 -267 -61 -129 -92 -167 -188 -232 -127 -87 -176
-108 -328 -144 -80 -19 -348 -16 -425 5 -72 20 -154 52 -215 85 -25 13 -76 41
-115 61 -38 19 -96 52 -128 73 -32 20 -117 67 -189 103 -72 36 -148 76 -169
90 -21 13 -89 49 -151 80 -62 31 -133 71 -158 89 -42 31 -129 75 -176 89 -11
3 -33 19 -48 35 l-28 29 159 126 c87 69 185 148 218 176 33 27 83 67 111 87
400 297 545 451 607 648 46 148 51 174 55 295 3 131 6 150 20 150 5 0 42 -37
83 -82z m-1214 -1578 c49 0 174 -71 239 -136 112 -112 142 -213 109 -371 -30
-143 -98 -240 -224 -322 -112 -72 -258 -89 -395 -47 -84 26 -182 99 -226 169
-22 34 -40 67 -40 73 0 5 -12 35 -26 65 -23 46 -27 67 -27 144 1 134 25 190
121 283 41 40 88 80 104 88 86 45 264 80 316 62 13 -4 35 -8 49 -8z m556 -545
c5 -17 12 -41 16 -55 12 -45 40 -51 246 -47 144 3 196 1 216 -9 64 -32 152
-54 259 -64 63 -5 144 -13 180 -16 57 -5 96 -1 200 21 14 2 36 13 50 23 66 49
245 78 316 52 39 -15 72 9 80 60 9 54 20 58 41 15 16 -33 16 -39 1 -78 -15
-41 -16 -42 -59 -39 -24 2 -60 7 -79 13 -82 21 -177 8 -239 -35 -72 -49 -147
-70 -261 -70 -253 -1 -439 26 -518 75 -15 10 -45 9 -146 -2 -84 -10 -132 -11
-144 -5 -9 5 -34 9 -55 7 -23 -2 -55 6 -85 21 -31 15 -65 23 -102 23 -60 0
-79 16 -31 26 43 9 61 27 61 59 0 65 37 82 53 25z m-2880 -1284 l27 -25 0
-197 c0 -144 -3 -200 -12 -205 -7 -4 -48 -20 -91 -35 -133 -46 -213 -110 -253
-205 -27 -60 -24 -203 4 -275 51 -128 227 -259 507 -377 100 -42 429 -193 502
-230 34 -18 68 -32 75 -32 16 0 189 -105 278 -168 170 -121 362 -351 459 -551
90 -185 121 -333 121 -581 0 -259 -36 -421 -136 -623 -143 -285 -325 -481
-599 -642 -174 -102 -510 -204 -740 -224 l-109 -10 -37 42 -38 42 -1 193 c0
223 -19 192 145 241 159 48 270 125 317 220 19 39 22 63 23 156 0 100 -2 115
-26 160 -39 72 -100 137 -178 188 -77 52 -332 181 -435 221 -208 83 -545 251
-670 335 -169 115 -341 276 -420 395 -186 280 -264 580 -237 904 19 219 60
361 164 571 133 266 317 444 617 596 152 77 372 133 605 154 84 7 89 6 138
-38z m23172 8 l45 -42 -2 -190 -3 -190 -65 -21 c-36 -11 -79 -31 -97 -44 -40
-29 -79 -109 -93 -192 -7 -45 -10 -523 -8 -1560 3 -1428 4 -1497 22 -1543 20
-52 50 -79 134 -121 l52 -26 0 -188 0 -188 -43 -42 -42 -42 -94 11 c-111 12
-218 42 -390 109 -193 74 -341 165 -545 335 -64 53 -222 238 -297 347 -61 89
-179 320 -224 438 -98 259 -134 475 -142 865 -11 535 60 882 265 1305 112 231
275 439 486 618 91 78 125 100 298 202 204 120 421 183 676 199 14 0 40 -15
67 -40z m441 6 c232 -30 354 -60 551 -136 84 -33 161 -59 172 -59 12 0 36 20
58 47 124 153 167 179 276 171 70 -6 140 -37 159 -71 36 -64 38 -89 38 -774 0
-493 -3 -686 -12 -725 -10 -41 -23 -63 -58 -98 -76 -76 -185 -92 -280 -42 -78
40 -109 92 -170 284 -88 273 -272 601 -423 752 -121 121 -290 190 -497 203
-52 3 -101 10 -107 16 -10 7 -13 59 -13 197 l0 188 42 36 c23 20 49 36 59 36
9 0 102 -11 205 -25z m-23183 -11 c97 -14 235 -60 450 -149 48 -20 97 -35 109
-33 13 2 38 28 65 68 25 35 61 76 80 90 32 22 46 25 123 25 80 0 89 -2 124
-29 55 -42 85 -114 97 -235 6 -57 9 -314 7 -598 l-3 -498 -26 -55 c-65 -140
-198 -196 -324 -136 -86 40 -119 92 -159 249 -33 126 -58 188 -136 331 -87
161 -211 302 -343 391 -46 31 -236 111 -327 137 l-45 13 -3 190 -3 190 43 38
c43 38 43 38 108 32 36 -4 109 -13 163 -21z m4284 -214 c24 -96 55 -231 69
-300 14 -69 66 -289 115 -490 112 -456 127 -516 145 -615 9 -44 60 -260 114
-480 53 -220 109 -452 124 -515 173 -764 275 -1163 305 -1193 5 -5 49 -31 97
-56 115 -61 147 -99 152 -185 8 -120 -52 -196 -180 -230 -57 -15 -145 -17
-893 -14 l-830 3 -51 27 c-103 54 -148 142 -126 246 14 68 47 105 150 169 82
51 88 62 79 162 -6 69 -61 340 -77 379 l-10 22 -384 0 -384 0 -36 44 c-20 24
-36 50 -36 58 0 26 83 373 93 386 7 9 83 12 318 12 277 0 309 2 309 16 0 9
-11 62 -24 118 -14 55 -27 119 -31 141 -11 68 -32 162 -150 670 -62 270 -117
510 -120 535 -6 40 -110 492 -181 789 l-25 108 46 179 c26 98 49 182 52 187 2
4 302 6 666 5 l661 -3 43 -175z m3232 145 c7 -16 60 -109 116 -205 57 -96 126
-217 154 -268 28 -51 84 -148 124 -215 41 -67 110 -187 154 -267 45 -80 101
-179 126 -220 26 -41 65 -109 88 -150 96 -173 243 -426 255 -440 7 -8 27 -44
45 -80 17 -36 57 -108 89 -160 31 -52 90 -153 130 -225 40 -71 117 -204 171
-295 53 -91 111 -190 128 -221 l31 -56 0 -673 0 -674 -37 -38 -37 -38 -428 0
-427 0 -24 33 c-23 31 -70 109 -136 230 -46 84 -161 279 -215 367 -25 41 -46
78 -46 82 0 5 -26 52 -58 106 -120 199 -188 315 -223 380 -19 37 -80 142 -135
234 -54 92 -139 236 -187 320 -49 84 -113 196 -144 248 -30 52 -93 163 -140
245 -47 83 -98 168 -113 190 -15 22 -37 60 -50 85 -12 25 -75 134 -139 242
-64 109 -122 210 -130 225 -12 24 -158 275 -242 416 -16 26 -29 49 -29 52 0 2
-25 46 -55 98 -71 121 -125 182 -173 197 -156 48 -216 88 -256 167 -18 36 -21
128 -5 170 32 87 105 146 200 162 29 5 403 8 829 7 l775 -1 14 -30z m1890 20
c89 -23 148 -75 176 -156 21 -60 19 -108 -10 -165 -28 -56 -69 -89 -183 -149
-85 -44 -167 -127 -207 -208 -52 -107 -54 -149 -55 -938 0 -569 -3 -729 -12
-736 -18 -15 -115 -36 -127 -28 -6 3 -42 59 -80 123 -38 64 -109 185 -157 267
l-89 150 -5 530 c-5 515 -6 532 -28 597 -12 36 -42 93 -67 126 -36 50 -62 71
-142 118 -54 31 -111 69 -126 83 -65 59 -91 161 -63 240 31 86 80 130 163 150
21 5 245 9 498 10 371 1 471 -2 514 -14z m2330 -22 l31 -38 0 -2060 0 -2061
-33 -32 -33 -32 -765 2 -764 3 -50 23 c-27 13 -60 33 -73 45 -77 72 -86 201
-20 293 32 45 95 84 180 113 35 12 57 26 65 42 10 19 13 371 13 1610 0 1497
-1 1588 -17 1607 -10 11 -51 32 -92 47 -126 47 -194 131 -194 240 0 103 83
198 198 226 17 4 366 7 777 8 l747 1 30 -37z m639 1 c278 -62 566 -225 803
-456 96 -93 132 -137 226 -278 150 -224 265 -548 324 -910 30 -182 37 -564 15
-760 -46 -396 -167 -753 -354 -1043 -87 -133 -112 -164 -253 -307 -131 -132
-322 -268 -493 -350 -154 -73 -385 -120 -593 -120 -76 0 -78 1 -115 37 l-38
37 0 188 c0 142 3 190 13 192 6 2 53 16 102 31 78 23 96 33 136 74 91 94 83
-33 87 1491 2 990 0 1365 -8 1420 -21 132 -71 231 -133 264 -18 10 -68 25
-112 35 l-80 17 -3 194 -2 194 42 44 43 44 138 -6 c93 -4 176 -14 255 -32z
m3690 21 c64 -19 132 -70 154 -115 12 -24 18 -58 18 -105 -1 -128 -52 -192
-192 -241 -49 -17 -84 -36 -91 -48 -18 -32 -17 -3169 1 -3211 11 -26 25 -35
95 -60 64 -23 92 -39 129 -76 54 -54 63 -86 56 -191 -7 -89 -24 -113 -113
-158 l-70 -35 -842 -3 c-818 -2 -844 -2 -899 17 -109 39 -164 105 -164 199 0
82 11 111 59 163 37 40 63 57 131 83 58 23 89 41 97 57 10 19 13 370 12 1609
0 872 -4 1593 -8 1603 -4 12 -40 31 -95 52 -138 52 -195 122 -196 238 0 109
62 184 185 223 31 10 228 13 861 13 708 1 827 -1 872 -14z m2545 -45 c28 -55
185 -325 238 -411 16 -25 29 -49 29 -53 0 -5 44 -83 99 -175 54 -91 130 -222
168 -291 39 -69 93 -163 121 -210 28 -47 72 -123 98 -170 82 -146 225 -393
259 -445 18 -27 39 -66 47 -85 8 -19 49 -91 90 -160 41 -69 110 -188 153 -265
42 -77 110 -194 150 -260 39 -66 88 -150 108 -186 l37 -66 0 -674 0 -673 -37
-38 -37 -38 -428 0 -427 0 -25 33 c-13 17 -50 79 -82 137 -31 58 -113 198
-181 312 -68 114 -123 211 -123 214 0 6 -73 131 -221 380 -27 45 -49 84 -49
88 0 3 -47 83 -103 178 -57 95 -138 234 -180 310 -42 75 -112 195 -154 267
-43 71 -107 181 -142 243 -36 62 -98 168 -138 235 -40 67 -73 125 -73 128 0 4
-42 78 -94 164 -51 86 -133 226 -181 311 -48 85 -102 178 -119 205 -18 28 -56
93 -85 145 -176 313 -224 380 -289 400 -156 48 -216 88 -256 167 -18 36 -21
128 -5 170 32 87 105 146 200 162 29 5 403 8 829 7 l775 -1 28 -55z m1892 39
c79 -24 135 -76 159 -146 23 -66 20 -111 -10 -170 -27 -54 -66 -86 -189 -152
-111 -60 -191 -158 -229 -279 -20 -65 -20 -93 -24 -826 -2 -458 -7 -764 -12
-771 -12 -15 -116 -39 -130 -30 -5 3 -41 59 -78 123 -38 64 -110 187 -161 272
l-91 156 0 494 c0 539 -4 581 -57 689 -36 74 -91 127 -193 185 -47 27 -98 60
-113 75 -100 92 -94 267 11 347 65 50 91 53 588 53 439 1 465 0 529 -20z
m-17589 -1129 c64 -250 79 -321 72 -345 -68 -234 -208 -743 -217 -783 -6 -29
-41 -158 -77 -285 -36 -128 -87 -308 -113 -402 -27 -93 -56 -204 -66 -245 -9
-41 -30 -122 -46 -180 -48 -175 -37 -271 38 -342 15 -14 72 -48 125 -73 137
-66 178 -119 178 -233 0 -107 -53 -174 -163 -207 -78 -23 -930 -22 -1008 1
-81 24 -136 61 -163 108 -77 133 -29 245 139 327 243 117 306 196 390 484 25
88 48 167 50 175 2 8 33 119 69 246 36 126 77 277 91 335 29 117 49 190 169
614 47 165 97 350 111 410 29 123 179 657 195 693 9 21 15 23 77 20 l68 -3 81
-315z m3409 -57 c37 -60 95 -155 127 -212 33 -57 76 -129 96 -160 l37 -56 5
-905 c6 -991 3 -937 65 -1060 29 -57 122 -145 205 -194 149 -88 177 -121 187
-220 5 -46 1 -64 -24 -118 -28 -60 -34 -66 -94 -93 l-64 -30 -490 0 c-488 0
-490 0 -547 23 -113 46 -153 102 -146 211 5 87 27 116 153 199 155 103 215
173 261 312 18 52 19 119 24 1210 l5 1155 60 22 c33 12 63 22 66 22 4 1 37
-47 74 -106z m11124 -72 c61 -98 111 -182 111 -185 0 -3 24 -43 53 -89 l52
-82 5 -905 c5 -844 7 -909 24 -960 42 -128 111 -211 235 -287 131 -79 147 -92
172 -136 34 -60 33 -153 -1 -221 -22 -43 -34 -53 -90 -80 l-65 -31 -459 -3
c-304 -2 -476 1 -510 8 -61 13 -145 52 -168 77 -42 47 -62 156 -39 216 15 39
74 92 153 139 128 74 209 173 254 308 18 52 19 119 24 1210 l5 1155 60 22 c33
12 63 22 66 22 4 1 57 -80 118 -178z m7001 -784 c91 -36 133 -104 134 -212 1
-90 -21 -133 -109 -212 -51 -46 -69 -69 -75 -99 -5 -21 -10 -285 -10 -585 l0
-546 -52 -49 c-65 -61 -181 -153 -228 -181 -19 -11 -88 -52 -152 -91 -159 -97
-216 -124 -354 -172 -206 -71 -414 -116 -621 -134 l-63 -6 -45 48 -45 47 2
189 3 188 80 23 c62 18 86 31 112 58 62 68 63 83 63 670 0 611 5 576 -89 597
-150 34 -210 70 -253 154 -33 64 -30 152 8 212 38 62 70 84 151 105 63 17 125
18 783 16 660 -2 718 -3 760 -20z m-26026 -570 c44 -34 89 -126 116 -236 12
-46 32 -112 45 -147 34 -91 151 -318 191 -370 19 -24 34 -48 34 -52 1 -18 114
-144 201 -222 109 -97 197 -148 314 -180 140 -38 125 -11 125 -228 l0 -188
-47 -46 -48 -47 -80 10 c-156 19 -256 51 -526 165 -70 30 -142 54 -160 54 -27
0 -45 -12 -105 -70 -77 -75 -138 -109 -193 -110 -95 0 -185 63 -223 158 l-23
57 0 640 0 640 28 57 c29 60 102 133 140 142 12 2 57 3 99 2 66 -2 82 -6 112
-29z"/>
<path d="M9680 16711 c-75 -23 -124 -61 -183 -142 -44 -59 -118 -384 -86 -377
7 2 38 42 70 90 72 108 236 271 347 344 45 30 82 61 82 68 0 22 -173 34 -230
17z"/>
<path d="M9921 16555 c-36 -30 -71 -55 -79 -55 -8 0 -75 -61 -148 -134 -101
-102 -141 -150 -164 -198 -17 -35 -37 -70 -44 -78 -6 -8 -18 -28 -26 -45 -8
-16 -23 -40 -35 -53 -19 -23 -20 -40 -27 -415 -4 -216 -8 -426 -8 -467 -2
-137 10 -759 21 -1140 6 -206 10 -719 9 -1140 -2 -731 -1 -766 17 -788 10 -13
34 -27 53 -32 19 -5 87 -25 150 -45 157 -48 232 -64 388 -80 137 -14 373 -11
467 5 201 36 410 122 506 209 51 47 62 71 129 286 5 17 21 98 35 180 20 119
27 195 30 365 3 118 9 253 15 300 21 192 32 857 26 1620 -7 966 -7 955 -45
1103 -56 214 -136 332 -326 479 -49 38 -132 90 -183 115 -87 43 -97 45 -149
39 -31 -4 -63 -12 -71 -19 -23 -19 -146 -14 -272 11 -199 40 -195 41 -269 -23z"/>
<path d="M9708 9659 c-22 -12 -24 -62 -4 -78 8 -7 27 -11 43 -9 21 2 29 10 37
35 14 53 -27 81 -76 52z"/>
<path d="M9612 9499 c-11 -18 -11 -32 3 -88 23 -96 25 -98 75 -81 71 23 124
108 86 139 -14 12 -122 51 -140 51 -6 0 -17 -10 -24 -21z"/>
<path d="M7071 9879 c-1 -108 0 -112 25 -131 14 -12 29 -31 34 -43 8 -22 14
-23 77 -21 37 2 87 4 111 5 33 1 42 5 42 19 0 69 -150 248 -226 270 -23 7 -46
12 -51 12 -7 0 -11 -43 -12 -111z"/>
<path d="M6733 9915 c-58 -25 -123 -155 -123 -246 0 -40 35 -145 57 -169 7 -8
13 -10 13 -3 0 12 38 37 128 88 51 28 54 32 56 71 1 23 10 53 19 67 16 24 15
27 -25 93 -40 68 -76 114 -87 114 -3 -1 -21 -7 -38 -15z"/>
<path d="M7040 9510 c-8 -5 -27 -10 -42 -10 -19 0 -29 -7 -34 -22 -3 -13 -22
-54 -41 -93 -32 -65 -33 -70 -17 -82 10 -7 27 -13 38 -14 12 -1 38 -3 59 -4
22 -2 57 3 80 11 54 19 147 82 147 99 0 15 -145 125 -164 125 -6 0 -18 -5 -26
-10z"/>
</g>
</svg>
