<?xml version="1.0" standalone="no"?>
<!DOCTYPE svg PUBLIC "-//W3C//DTD SVG 20010904//EN"
 "http://www.w3.org/TR/2001/REC-SVG-20010904/DTD/svg10.dtd">
<svg version="1.0" xmlns="http://www.w3.org/2000/svg"
 width="1549.000000pt" height="1205.000000pt" viewBox="0 0 1549.000000 1205.000000"
 preserveAspectRatio="xMidYMid meet">

<g transform="translate(0.000000,1205.000000) scale(0.100000,-0.100000)"
fill="#000000" stroke="none">
<path d="M9130 10042 c-55 -5 -177 -40 -253 -72 -109 -47 -224 -128 -332 -236
-114 -113 -133 -145 -194 -334 -57 -178 -70 -351 -79 -1072 -7 -557 -3 -915
18 -1838 7 -261 15 -668 20 -905 5 -236 14 -547 21 -689 l12 -260 -23 -15
c-56 -38 -108 -98 -119 -136 -7 -25 -11 -140 -11 -298 l0 -258 48 -57 c26 -31
128 -140 227 -242 387 -399 491 -537 530 -704 20 -82 19 -214 -1 -284 -21 -72
-125 -282 -172 -346 -33 -44 -34 -51 -24 -80 16 -42 15 -63 -3 -133 -14 -54
-14 -59 2 -71 28 -20 48 -14 91 28 22 22 45 40 51 40 5 0 13 -15 16 -32 7 -41
-35 -151 -60 -156 -19 -4 -53 32 -61 65 -12 45 -84 16 -84 -33 0 -31 47 -96
93 -129 38 -27 50 -30 138 -33 182 -8 308 52 365 173 47 99 24 266 -45 329
-20 18 -20 18 7 45 43 42 108 134 149 207 35 64 37 73 39 168 2 55 8 110 15
122 20 39 145 84 259 94 l65 5 6 60 c4 33 10 116 14 185 8 155 29 305 55 390
34 111 25 202 -28 282 -30 46 -30 86 0 163 l24 60 83 8 c96 8 115 17 141 60
34 55 18 140 -38 204 -90 103 -286 21 -418 -176 -42 -61 -93 -249 -94 -342 0
-28 -6 -51 -14 -58 -26 -22 -111 -23 -163 -2 -26 10 -72 21 -102 25 -89 12
-112 26 -154 98 -21 36 -49 75 -62 86 -13 12 -35 38 -49 59 -22 34 -26 55 -36
198 -6 88 -9 180 -7 205 3 25 -1 62 -8 83 -12 35 -12 37 6 32 10 -3 29 -8 42
-11 12 -3 41 -14 65 -25 24 -11 66 -24 94 -29 27 -6 54 -13 59 -16 14 -8 137
-34 163 -33 12 0 52 -4 89 -9 94 -11 404 -4 502 13 164 27 317 72 487 143 9 4
52 41 95 82 101 98 141 176 193 383 41 164 77 437 84 648 3 63 9 182 15 264 6
83 13 222 16 310 3 88 9 252 14 365 5 121 5 303 -1 445 -5 132 -6 317 -1 410
9 205 9 202 -1 595 -8 351 -16 455 -46 591 -49 221 -62 266 -101 343 -78 155
-261 346 -398 416 -24 12 -64 36 -89 54 -26 18 -66 44 -90 57 -27 15 -45 32
-49 49 -15 63 -105 185 -179 243 -143 112 -278 173 -449 207 -93 18 -295 30
-375 22z m233 -488 c46 -9 33 -36 -41 -81 -127 -79 -304 -256 -386 -386 -27
-43 -54 -76 -60 -74 -7 2 -10 24 -8 53 3 58 56 273 76 313 22 42 106 126 151
150 67 36 169 45 268 25z m305 -144 c162 -33 236 -37 285 -16 18 7 58 16 88
20 54 7 60 5 165 -48 118 -59 262 -170 347 -267 53 -60 128 -200 145 -269 45
-183 52 -239 61 -515 17 -545 1 -2230 -23 -2400 -2 -16 -7 -131 -11 -255 -3
-124 -8 -243 -11 -265 -19 -153 -51 -300 -91 -425 -44 -140 -48 -147 -99 -195
-50 -48 -222 -145 -256 -145 -8 0 -18 -4 -24 -10 -5 -5 -44 -16 -86 -24 -43
-8 -86 -20 -97 -25 -21 -12 -198 -34 -210 -27 -4 3 -50 2 -102 -3 -59 -4 -139
-2 -216 6 -199 20 -293 41 -504 114 -31 10 -63 19 -71 19 -8 0 -27 9 -42 21
l-26 21 2 751 c2 502 6 754 13 759 6 5 6 8 -2 8 -8 0 -13 13 -13 30 0 17 4 30
8 30 4 0 8 9 8 19 0 14 -4 17 -12 10 -20 -16 -23 49 -25 471 0 223 -3 540 -5
705 -5 351 -5 341 4 865 l7 405 26 35 c23 32 63 98 132 220 31 55 245 272 290
294 18 8 58 37 90 63 32 27 70 50 83 51 14 1 91 -12 172 -28z m-443 -7189 c0
-14 -54 -35 -64 -26 -2 3 4 14 14 25 21 23 50 23 50 1z m-12 -165 c48 -21 57
-29 57 -51 0 -49 -56 -107 -120 -125 -27 -8 -32 -6 -44 18 -7 15 -19 55 -26
90 -12 57 -11 64 6 83 22 24 45 22 127 -15z"/>
<path d="M8894 6620 c0 -16 3 -27 8 -24 4 3 6 14 5 24 -5 32 -13 32 -13 0z"/>
<path d="M8901 6504 c0 -11 3 -14 6 -6 3 7 2 16 -1 19 -3 4 -6 -2 -5 -13z"/>
<path d="M8890 6466 c0 -8 4 -17 8 -20 4 -2 8 4 8 15 0 10 -4 19 -8 19 -4 0
-8 -6 -8 -14z"/>
<path d="M12430 9893 c-153 -11 -376 -71 -510 -137 -147 -73 -297 -226 -385
-395 -45 -86 -69 -101 -132 -85 -30 7 -38 15 -45 41 -11 41 -16 44 -65 32 -26
-7 -52 -7 -74 -1 -19 5 -40 7 -47 5 -21 -8 -43 -62 -47 -119 -6 -78 22 -136
79 -164 23 -11 51 -20 62 -20 25 0 64 -27 64 -45 0 -14 -18 -47 -160 -290 -52
-88 -122 -214 -157 -280 l-64 -120 1 -289 c1 -356 5 -370 87 -243 62 94 189
322 259 462 14 28 33 64 43 80 10 17 40 73 66 125 27 52 72 133 100 180 28 47
78 130 110 185 89 152 100 165 140 165 l35 0 -19 -32 c-10 -18 -38 -64 -63
-103 -24 -38 -88 -146 -142 -240 -126 -220 -117 -204 -144 -248 -13 -21 -35
-59 -49 -85 -109 -195 -278 -483 -353 -602 -36 -57 -70 -140 -70 -171 0 -50
23 -57 54 -16 25 33 119 198 170 297 16 30 45 80 66 110 44 66 140 229 185
314 61 116 292 511 357 611 67 103 99 159 98 172 -2 17 73 25 273 30 180 5
215 3 263 -12 54 -17 57 -17 82 2 19 14 28 31 30 56 6 67 -59 105 -131 78 -14
-5 -143 -11 -288 -12 -310 -2 -294 -12 -205 124 65 97 102 132 226 205 102 61
171 81 294 84 108 2 147 -10 174 -56 23 -39 115 -102 187 -127 92 -32 180 -21
227 28 66 70 89 220 45 298 -44 78 -147 132 -327 173 -129 29 -223 40 -300 35z"/>
<path d="M6933 6778 c-5 -7 -21 -33 -34 -58 -35 -67 -49 -80 -85 -80 -27 0
-36 -7 -60 -44 -24 -38 -33 -45 -72 -50 -34 -4 -56 -16 -89 -47 -40 -37 -49
-41 -82 -35 -65 10 -102 -8 -182 -91 -146 -152 -226 -264 -274 -381 -42 -104
-56 -382 -29 -594 6 -47 6 -47 -28 -56 -29 -7 -34 -13 -39 -49 -7 -52 -24 -73
-60 -73 l-29 0 0 -90 c0 -96 8 -110 61 -110 15 0 41 -20 75 -57 48 -52 55 -56
76 -45 41 21 103 57 154 89 67 43 147 79 219 98 80 20 371 21 449 1 70 -19
198 -81 304 -149 87 -56 258 -217 295 -277 59 -98 138 -170 187 -170 54 0 145
58 240 152 81 81 97 103 146 203 l56 113 -6 233 c-3 129 -8 261 -11 294 -5 62
-46 218 -70 271 -8 16 -27 60 -44 96 -58 131 -127 223 -208 279 l-42 29 -189
3 c-104 2 -194 7 -200 11 -6 3 -18 29 -27 56 -9 28 -32 69 -52 92 -31 37 -34
47 -29 81 5 31 3 41 -14 55 l-21 17 22 67 c12 37 19 74 16 82 -7 17 -239 133
-285 142 -18 4 -32 1 -39 -8z"/>
<path d="M4675 5435 c-14 -13 -26 -32 -26 -42 -1 -10 -3 -31 -6 -48 -2 -16 -7
-85 -11 -153 -8 -141 -11 -145 -92 -156 -89 -12 -103 -31 -282 -395 -227 -461
-319 -644 -328 -656 -4 -5 -13 -28 -20 -50 -7 -22 -18 -47 -25 -55 -14 -18
-72 -140 -90 -190 -7 -19 -34 -82 -60 -140 -64 -143 -166 -423 -185 -505 -5
-22 -18 -76 -30 -120 -11 -44 -27 -123 -36 -175 -20 -125 -27 -140 -61 -140
-60 0 -75 -34 -76 -169 -2 -107 -2 -108 27 -133 l29 -24 -11 -65 c-13 -72 -16
-105 -14 -168 l2 -44 103 6 c56 2 132 13 170 23 66 18 68 18 86 -1 15 -17 52
-103 75 -177 6 -20 32 -23 69 -9 14 5 80 15 148 21 68 7 143 18 166 26 40 13
48 12 140 -17 169 -53 212 -61 353 -60 102 1 219 14 317 36 60 14 170 64 206
94 15 13 17 12 18 -12 2 -31 3 -35 14 -60 5 -11 11 -14 19 -9 6 5 44 19 84 31
64 19 94 22 240 20 270 -4 312 -1 312 16 0 27 -47 35 -192 35 -83 0 -175 6
-222 15 -148 27 -249 35 -266 20 -38 -33 -134 -76 -225 -102 -94 -26 -112 -28
-297 -28 -145 0 -200 3 -210 12 -6 7 -22 13 -34 13 -12 0 -27 7 -34 15 -7 8
-18 15 -25 15 -6 0 -33 11 -59 25 -26 14 -66 28 -89 31 -60 9 -70 17 -130 92
-30 37 -72 85 -94 107 -67 68 -171 288 -208 440 -21 88 -31 278 -17 325 19 63
66 164 111 238 72 120 242 288 411 407 39 28 97 69 128 93 71 53 163 118 267
191 44 30 126 92 182 136 56 44 130 100 165 125 80 57 214 174 234 206 15 22
15 29 0 86 -8 35 -27 111 -41 169 -42 177 -119 373 -165 419 -13 13 -34 20
-58 20 l-39 0 -6 181 c-7 171 -14 213 -41 231 -6 4 -64 8 -129 8 -112 0 -119
-1 -142 -25z"/>
<path d="M5508 5143 c-49 -5 -62 -23 -53 -73 6 -34 11 -42 35 -46 24 -5 28
-11 33 -52 2 -26 5 -85 6 -132 2 -139 13 -330 20 -330 3 1 31 21 61 45 l55 45
0 210 c0 115 2 209 5 208 3 -1 15 4 28 11 17 9 22 20 22 54 0 24 -5 48 -12 55
-12 12 -113 14 -200 5z"/>
<path d="M6520 5059 c-72 -10 -165 -43 -204 -72 -17 -12 -56 -35 -86 -51 -30
-16 -66 -37 -80 -46 -14 -10 -41 -27 -61 -38 -42 -23 -185 -130 -304 -227
-123 -100 -144 -116 -235 -186 -47 -36 -114 -85 -150 -109 -60 -40 -157 -112
-249 -185 -21 -16 -64 -50 -97 -74 -32 -24 -110 -83 -172 -130 -62 -47 -139
-104 -171 -126 -33 -22 -95 -67 -140 -100 -44 -33 -113 -84 -153 -113 -215
-157 -420 -349 -468 -439 -9 -17 -24 -43 -33 -57 -9 -14 -28 -60 -43 -103 -22
-67 -25 -96 -25 -205 0 -70 4 -135 9 -145 5 -10 19 -54 30 -99 11 -44 45 -130
76 -191 65 -131 106 -172 234 -234 79 -39 95 -43 191 -50 58 -4 270 -6 471 -5
416 1 377 -6 508 98 42 33 110 83 151 111 42 28 108 76 146 106 39 31 86 69
107 84 20 14 42 33 50 40 40 39 262 197 277 197 4 0 36 25 72 56 35 30 100 80
144 110 44 30 107 77 140 104 33 27 77 62 98 77 21 16 120 93 220 173 101 80
196 154 212 164 53 34 318 258 382 323 34 34 74 86 89 115 57 112 98 272 109
419 6 82 4 107 -15 175 -37 135 -86 218 -203 341 -71 75 -230 182 -342 231
-121 53 -347 81 -485 61z"/>
<path d="M9027 4398 c6 -197 15 -278 31 -287 31 -16 78 16 106 72 11 20 23 37
28 37 4 0 8 6 8 13 0 6 11 34 25 61 44 86 32 119 -45 128 -39 5 -63 13 -102
34 -48 26 -53 21 -51 -58z"/>
<path d="M7618 4428 c4 -18 7 -87 6 -153 -1 -162 -33 -291 -117 -465 -25 -52
-57 -91 -162 -195 -72 -71 -151 -143 -175 -160 -25 -16 -61 -43 -81 -60 -74
-62 -163 -131 -193 -148 -17 -11 -49 -36 -71 -56 -22 -21 -52 -46 -66 -57 -15
-10 -69 -53 -120 -94 -52 -42 -105 -83 -119 -93 -14 -9 -43 -32 -65 -52 -39
-35 -39 -36 -20 -50 11 -9 28 -22 38 -31 10 -8 57 -33 105 -55 48 -23 107 -56
132 -73 25 -18 86 -52 135 -76 50 -25 122 -63 160 -86 39 -22 126 -69 194
-103 68 -34 149 -79 180 -99 96 -61 398 -210 461 -226 81 -21 168 -31 265 -30
226 1 374 44 531 154 31 22 62 40 68 40 22 0 98 98 135 175 81 167 91 198 97
313 11 186 -32 302 -171 462 -45 52 -106 124 -136 160 -29 36 -101 112 -159
170 -58 58 -112 115 -121 128 -8 12 -74 84 -145 159 -71 75 -136 145 -144 157
-8 12 -75 86 -149 166 -74 80 -155 171 -179 202 -25 32 -53 60 -63 63 -11 4
-19 10 -19 15 0 5 -9 14 -20 20 -18 10 -19 8 -12 -22z"/>
<path d="M9884 3304 c3 -44 12 -110 21 -149 8 -38 15 -86 15 -106 0 -33 -4
-38 -37 -52 -37 -15 -37 -15 -10 -16 70 -2 78 22 52 169 -8 47 -17 115 -20
152 -9 99 -29 100 -21 2z"/>
<path d="M6253 2697 c-23 -7 -45 -15 -49 -19 -4 -5 -16 -8 -26 -8 -33 0 -160
-85 -216 -145 -75 -81 -100 -140 -108 -251 -7 -96 6 -152 63 -272 39 -83 131
-178 214 -222 80 -43 273 -62 364 -35 116 33 272 164 322 271 9 19 21 34 25
34 5 0 7 4 4 9 -3 5 4 46 15 92 28 112 21 177 -28 271 -53 102 -138 184 -244
236 -82 41 -92 43 -190 47 -65 3 -120 0 -146 -8z m310 -162 c41 -23 76 -60
139 -147 27 -37 52 -114 39 -122 -8 -5 -99 -9 -171 -7 -53 1 -56 3 -74 36 -10
19 -28 37 -39 41 -17 5 -19 13 -13 83 3 42 5 93 5 115 l0 38 35 -6 c19 -4 54
-18 79 -31z m-399 -47 c28 -28 106 -150 106 -166 0 -7 -4 -12 -9 -12 -15 0
-34 -58 -29 -90 4 -26 0 -34 -31 -53 -40 -24 -83 -49 -121 -69 -14 -7 -30 -19
-35 -26 -9 -11 -14 -10 -26 5 -27 30 -53 114 -53 168 0 65 37 163 80 214 30
34 43 42 87 50 4 0 18 -9 31 -21z m371 -458 c43 -31 75 -61 75 -71 0 -11 -29
-37 -72 -66 l-71 -48 -88 0 c-126 0 -130 6 -80 118 21 48 42 91 45 95 9 9 87
30 103 28 7 0 46 -26 88 -56z"/>
<path d="M6930 2490 c0 -3 9 -34 21 -70 42 -135 51 -177 50 -246 0 -104 -9
-120 -70 -128 -43 -6 -53 -11 -66 -36 -8 -16 -15 -31 -15 -33 0 -3 28 -2 63 0
35 3 109 -2 172 -12 61 -9 175 -18 255 -20 116 -2 167 -8 255 -29 152 -37 374
-60 505 -52 113 7 188 26 235 61 65 48 150 57 287 29 75 -15 110 -14 107 3 -1
4 1 17 5 28 4 11 13 32 18 48 8 21 6 37 -11 76 -11 28 -25 61 -31 75 -6 17
-14 24 -25 20 -11 -5 -15 -22 -15 -74 0 -88 -12 -102 -78 -92 -119 18 -272
-10 -324 -57 -49 -46 -253 -63 -448 -36 -177 24 -220 31 -260 43 -44 14 -211
32 -287 32 -32 0 -93 5 -135 12 -83 12 -91 19 -76 72 10 37 -4 135 -33 232
-16 54 -33 87 -60 117 -21 23 -38 40 -39 37z"/>
</g>
</svg>
